<?xml version="1.0" encoding="utf-8"?>
<!-- Generator: Adobe Illustrator 18.0.0, SVG Export Plug-In . SVG Version: 6.00 Build 0)  -->
<!DOCTYPE svg PUBLIC "-//W3C//DTD SVG 1.1//EN" "http://www.w3.org/Graphics/SVG/1.1/DTD/svg11.dtd">
<svg version="1.1" id="Layer_1" xmlns="http://www.w3.org/2000/svg" xmlns:xlink="http://www.w3.org/1999/xlink" x="0px" y="0px"
	 viewBox="0 0 450 450" enable-background="new 0 0 450 450" xml:space="preserve">
<path fill="#E94735" d="M224.1,10C107.5,10,13,104.5,13,221.2c0,116.6,94.5,211.1,211.1,211.1c116.7,0,211.2-94.5,211.2-211.1
	C435.3,104.5,340.7,10,224.1,10z M207,319.8c-2.5,40.6-8.9,68.4-46.3,59.2c-24.3-6-44.2-18.1-68.8-44.3C66,307,57.8,281,57.8,281
	s-17.5-40.9,32.1-43.8c44.5-2.6,46.8-2.5,46.8-2.5c0.8,0,9.4-0.2,13.1,5c3.5,4.8,4,11.2-1.1,20.3c-7,12.4-11.8,9.1-22,16.6
	c-16.6,12.2-14.5,32.2-3,43.8c11.5,11.6,35.6,12.1,49.2-3.3c9.3-10.7,1.1-26.8,11.1-36.8c3.5-3.5,6.3-4.8,12.7-3.4
	C207.8,279.2,209,288.6,207,319.8z M196.7,162.5c-6.5,1.4-9.3,0.1-12.7-3.4c-10-10-1.8-26.1-11.1-36.8
	c-13.5-15.5-37.6-14.9-49.2-3.3c-11.5,11.5-13.6,31.5,3,43.8c10.2,7.5,19,1.1,26,13.5c5.1,9.1,0.7,18.6-2.8,23.4
	c-3.7,5.2-12.3,5-13.1,5c0,0.1-2.4,0.1-46.8-2.5c-49.6-2.9-32.1-43.8-32.1-43.8s8.2-26,34.2-53.6c24.6-26.2,44.5-38.3,68.8-44.3
	c37.4-9.2,43.8,18.6,46.3,59.2C209,150.8,207.8,160.1,196.7,162.5z M238.8,119.5c2.5-40.6,8.9-68.4,46.3-59.2
	c24.3,6,44.2,18.1,68.8,44.3c26,27.7,34.2,53.6,34.2,53.6s17.5,40.9-32.1,43.8c-44.5,2.6-46.8,2.5-46.8,2.5c-0.8,0-9.4,0.2-13.1-5
	c-3.5-4.8-8-14.3-2.8-23.4c7-12.4,15.8-6,26-13.5c16.6-12.2,14.5-32.2,3-43.8c-11.5-11.6-35.6-12.1-49.2,3.3
	c-9.3,10.7-1.1,26.8-11.1,36.8c-3.5,3.5-6.3,4.8-12.7,3.4C238.1,160.1,236.8,150.8,238.8,119.5z M388.1,281c0,0-8.2,26-34.2,53.6
	C329.3,360.9,309.4,373,285,379c-37.4,9.2-43.8-18.6-46.3-59.2c-1.9-31.3-0.7-40.6,10.4-43c6.5-1.4,9.3-0.1,12.7,3.4
	c10,10,1.8,26.1,11.1,36.8c13.5,15.5,37.6,14.9,49.2,3.3c11.5-11.5,13.6-31.5-3-43.8c-10.2-7.5-19-1.1-26-13.5
	c-5.1-9.1-0.7-18.6,2.8-23.4c3.7-5.2,12.3-5,13.1-5c0-0.1,2.4-0.1,46.8,2.5C405.6,240.1,388.1,281,388.1,281z"/>
<g>
	<path fill="#C52126" d="M114.7,244.6c-2.7,1.4-2.9,6.6-0.4,11.6c2.5,5.1,8.4,11.2,11.1,9.8c2.7-1.4,1.4-9.7-1.2-14.8
		C121.7,246.2,117.4,243.2,114.7,244.6z"/>
	<path fill="#C52126" d="M90.4,276c4.9,2.8,13.2,4.7,14.7,2.1c1.5-2.7-4.2-8.9-9.1-11.7c-4.9-2.8-10.1-3-11.6-0.3
		C82.7,268.7,85.5,273.1,90.4,276z"/>
	<path fill="#C52126" d="M92.5,302.2c-5.6,0.4-10.1,3.1-9.9,6.2c0.2,3.1,4.9,5.3,10.6,4.9c5.6-0.4,13.6-3.3,13.4-6.4
		C106.4,303.9,98.1,301.9,92.5,302.2z"/>
	<path fill="#C52126" d="M193.6,318.6c-5.1-2.5-13.4-3.9-14.8-1.2c-1.4,2.7,4.8,8.6,9.8,11.1c5.1,2.5,10.3,2.3,11.6-0.4
		C201.6,325.4,198.6,321.1,193.6,318.6z"/>
	<path fill="#C52126" d="M171.1,340.1c-2.7,1.5-0.8,9.8,2.1,14.7c2.8,4.9,7.3,7.6,9.9,6.1c2.7-1.5,2.5-6.7-0.3-11.6
		C179.9,344.3,173.7,338.5,171.1,340.1z"/>
	<path fill="#C52126" d="M147.2,339.8c-3.1-0.2-6.1,7.7-6.4,13.4c-0.4,5.6,1.8,10.4,4.9,10.6c3.1,0.2,5.8-4.2,6.2-9.9
		C152.3,348.3,150.3,340,147.2,339.8z"/>
	<path fill="#C52126" d="M110.5,334.7c-3.5,4.4-4.4,9.6-2,11.5c2.4,1.9,7.2-0.2,10.7-4.6c3.5-4.4,6.6-12.3,4.1-14.2
		C120.9,325.4,114,330.2,110.5,334.7z"/>
	<path fill="#C52126" d="M333.2,256.2c2.5-5.1,2.3-10.3-0.4-11.6c-2.7-1.4-7,1.6-9.5,6.7c-2.5,5.1-3.9,13.4-1.2,14.8
		C324.8,267.4,330.6,261.3,333.2,256.2z"/>
	<path fill="#C52126" d="M351.5,266.3c-4.9,2.8-10.7,9-9.1,11.7c1.5,2.7,9.8,0.8,14.7-2.1c4.9-2.8,7.6-7.3,6.1-9.9
		C361.6,263.4,356.4,263.5,351.5,266.3z"/>
	<path fill="#C52126" d="M354.9,302.2c-5.6-0.4-13.9,1.6-14.1,4.7c-0.2,3.1,7.7,6.1,13.4,6.4c5.6,0.4,10.4-1.8,10.6-4.9
		C365,305.3,360.6,302.6,354.9,302.2z"/>
	<path fill="#C52126" d="M268.6,317.5c-1.4-2.7-9.7-1.4-14.8,1.2c-5.1,2.5-8,6.8-6.7,9.5c1.4,2.7,6.6,2.9,11.6,0.4
		C263.9,326.1,270,320.2,268.6,317.5z"/>
	<path fill="#C52126" d="M276.4,340.1c-2.7-1.5-8.9,4.2-11.7,9.1c-2.8,4.9-3,10.1-0.3,11.6c2.7,1.5,7.1-1.2,9.9-6.1
		S279,341.6,276.4,340.1z"/>
	<path fill="#C52126" d="M300.2,339.8c-3.1,0.2-5,8.4-4.7,14.1c0.4,5.6,3.1,10.1,6.2,9.9c3.1-0.2,5.3-4.9,4.9-10.6
		C306.2,347.6,303.2,339.6,300.2,339.8z"/>
	<path fill="#C52126" d="M324.1,327.3c-2.4,1.9,0.6,9.8,4.1,14.2c3.5,4.4,8.3,6.5,10.7,4.6c2.4-1.9,1.5-7-2-11.5
		S326.5,325.4,324.1,327.3z"/>
	<path fill="#C52126" d="M125.4,172.7c-2.7-1.4-8.6,4.8-11.1,9.8c-2.5,5.1-2.3,10.3,0.4,11.6c2.7,1.4,7-1.6,9.5-6.7
		C126.7,182.4,128.1,174,125.4,172.7z"/>
	<path fill="#C52126" d="M95.9,172.4c4.9-2.8,10.7-9,9.1-11.7c-1.5-2.7-9.8-0.8-14.7,2.1c-4.9,2.8-7.6,7.3-6.1,9.9
		C85.8,175.3,91,175.2,95.9,172.4z"/>
	<path fill="#C52126" d="M93.2,125.4c-5.6-0.4-10.4,1.8-10.6,4.9c-0.2,3.1,4.2,5.8,9.9,6.2c5.6,0.4,13.9-1.6,14.1-4.7
		C106.7,128.7,98.8,125.7,93.2,125.4z"/>
	<path fill="#C52126" d="M188.6,110.1c-5.1,2.5-11.2,8.4-9.8,11.1c1.4,2.7,9.7,1.4,14.8-1.2c5.1-2.5,8-6.8,6.7-9.5
		C198.9,107.8,193.7,107.6,188.6,110.1z"/>
	<path fill="#C52126" d="M171.1,98.6c2.7,1.5,8.9-4.2,11.7-9.1c2.8-4.9,3-10.1,0.3-11.6c-2.7-1.5-7.1,1.2-9.9,6.1
		C170.3,88.8,168.4,97.1,171.1,98.6z"/>
	<path fill="#C52126" d="M145.8,74.9c-3.1,0.2-5.3,4.9-4.9,10.6c0.4,5.6,3.3,13.6,6.4,13.4c3.1-0.2,5-8.4,4.7-14.1
		S148.8,74.7,145.8,74.9z"/>
	<path fill="#C52126" d="M123.3,111.4c2.4-1.9-0.6-9.8-4.1-14.2c-3.5-4.4-8.3-6.5-10.7-4.6c-2.4,1.9-1.5,7,2,11.5
		C114,108.5,120.9,113.3,123.3,111.4z"/>
	<path fill="#C52126" d="M332.7,194.1c2.7-1.4,2.9-6.6,0.4-11.6c-2.5-5.1-8.4-11.2-11.1-9.8c-2.7,1.4-1.4,9.7,1.2,14.8
		C325.7,192.5,330,195.5,332.7,194.1z"/>
	<path fill="#C52126" d="M357.1,162.8c-4.9-2.8-13.2-4.7-14.7-2.1c-1.5,2.7,4.2,8.9,9.1,11.7c4.9,2.8,10.1,3,11.6,0.3
		C364.7,170,361.9,165.6,357.1,162.8z"/>
	<path fill="#C52126" d="M354.9,136.5c5.6-0.4,10.1-3.1,9.9-6.2c-0.2-3.1-4.9-5.3-10.6-4.9c-5.6,0.4-13.6,3.3-13.4,6.4
		C341.1,134.9,349.3,136.8,354.9,136.5z"/>
	<path fill="#C52126" d="M253.8,120.1c5.1,2.5,13.4,3.9,14.8,1.2c1.4-2.7-4.8-8.6-9.8-11.1c-5.1-2.5-10.3-2.3-11.6,0.4
		C245.8,113.3,248.8,117.6,253.8,120.1z"/>
	<path fill="#C52126" d="M264.4,77.9c-2.7,1.5-2.5,6.7,0.3,11.6c2.8,4.9,9,10.7,11.7,9.1c2.7-1.5,0.8-9.8-2.1-14.7
		S267,76.3,264.4,77.9z"/>
	<path fill="#C52126" d="M301.7,74.9c-3.1-0.2-5.8,4.2-6.2,9.9c-0.4,5.6,1.6,13.9,4.7,14.1c3.1,0.2,6.1-7.7,6.4-13.4
		C306.9,79.9,304.7,75.1,301.7,74.9z"/>
	<path fill="#C52126" d="M328.2,97.2c-3.5,4.4-6.6,12.3-4.1,14.2c2.4,1.9,9.4-2.9,12.9-7.4c3.5-4.4,4.4-9.6,2-11.5
		C336.5,90.7,331.7,92.7,328.2,97.2z"/>
</g>
</svg>
