<?xml version="1.0" encoding="utf-8"?>
<!-- Generator: Adobe Illustrator 18.0.0, SVG Export Plug-In . SVG Version: 6.00 Build 0)  -->
<!DOCTYPE svg PUBLIC "-//W3C//DTD SVG 1.1//EN" "http://www.w3.org/Graphics/SVG/1.1/DTD/svg11.dtd">
<svg version="1.1" id="Layer_1" xmlns="http://www.w3.org/2000/svg" xmlns:xlink="http://www.w3.org/1999/xlink" x="0px" y="0px"
	 viewBox="0 0 1250 450" enable-background="new 0 0 1250 450" xml:space="preserve">
<text transform="matrix(1 0 0 1 372.709 315.3926)" fill="#AA1E23" font-family="'Comfortaa'" font-size="271.3903">tomviz</text>
<path fill="#E94735" d="M178.2,63.8C90.3,63.8,19,135,19,223c0,87.9,71.3,159.2,159.2,159.2c88,0,159.2-71.3,159.2-159.2
	C337.4,135,266.1,63.8,178.2,63.8z M165.3,297.4c-1.9,30.6-6.7,51.6-34.9,44.6c-18.3-4.5-33.4-13.6-51.9-33.4
	c-19.6-20.9-25.8-40.5-25.8-40.5s-13.2-30.8,24.2-33c33.5-2,35.3-1.9,35.3-1.9c0.6,0,7.1-0.1,9.9,3.8c2.6,3.6,3,8.5-0.9,15.3
	c-5.3,9.4-8.9,6.8-16.6,12.5c-12.5,9.2-11,24.3-2.3,33c8.7,8.7,26.9,9.1,37.1-2.5c7-8.1,0.8-20.2,8.4-27.8c2.6-2.6,4.7-3.6,9.6-2.6
	C165.9,266.8,166.8,273.8,165.3,297.4z M157.5,178.7c-4.9,1-7,0.1-9.6-2.6c-7.6-7.6-1.3-19.7-8.4-27.8
	c-10.2-11.7-28.4-11.3-37.1-2.5c-8.7,8.7-10.2,23.8,2.3,33c7.7,5.7,14.3,0.8,19.6,10.2c3.9,6.9,0.5,14-2.1,17.7
	c-2.8,3.9-9.2,3.8-9.9,3.8c0,0-1.8,0.1-35.3-1.9c-37.4-2.2-24.2-33-24.2-33s6.2-19.6,25.8-40.5c18.6-19.8,33.6-28.9,51.9-33.4
	c28.2-6.9,33,14,34.9,44.6C166.8,169.9,165.9,177,157.5,178.7z M189.3,146.4c1.9-30.6,6.7-51.6,34.9-44.6
	c18.3,4.5,33.4,13.6,51.9,33.4c19.6,20.9,25.8,40.5,25.8,40.5s13.2,30.8-24.2,33c-33.5,2-35.3,1.9-35.3,1.9c-0.6,0-7.1,0.1-9.9-3.8
	c-2.6-3.6-6-10.8-2.1-17.7c5.3-9.4,11.9-4.5,19.6-10.2c12.5-9.2,11-24.3,2.3-33c-8.7-8.7-26.9-9.1-37.1,2.5
	c-7,8.1-0.8,20.2-8.4,27.8c-2.6,2.6-4.7,3.6-9.6,2.6C188.7,177,187.8,169.9,189.3,146.4z M301.8,268.2c0,0-6.2,19.6-25.8,40.5
	c-18.6,19.8-33.6,28.9-51.9,33.4c-28.2,6.9-33-14-34.9-44.6c-1.5-23.6-0.5-30.6,7.8-32.4c4.9-1,7-0.1,9.6,2.6
	c7.6,7.6,1.3,19.7,8.4,27.8c10.2,11.7,28.4,11.3,37.1,2.5c8.7-8.7,10.2-23.8-2.3-33c-7.7-5.7-14.3-0.8-19.6-10.2
	c-3.9-6.9-0.5-14,2.1-17.7c2.8-3.9,9.2-3.8,9.9-3.8c0,0,1.8-0.1,35.3,1.9C315,237.3,301.8,268.2,301.8,268.2z"/>
<g>
	<path fill="#C52126" d="M95.7,240.7c-2.1,1-2.2,5-0.3,8.8c1.9,3.8,6.3,8.4,8.4,7.4c2.1-1,1-7.3-0.9-11.2
		C101,241.9,97.7,239.6,95.7,240.7z"/>
	<path fill="#C52126" d="M77.3,264.3c3.7,2.1,9.9,3.6,11.1,1.6c1.2-2-3.2-6.7-6.9-8.8c-3.7-2.1-7.6-2.2-8.8-0.2
		C71.6,258.8,73.6,262.2,77.3,264.3z"/>
	<path fill="#C52126" d="M78.9,284.1c-4.3,0.3-7.6,2.4-7.4,4.7c0.1,2.3,3.7,4,8,3.7c4.3-0.3,10.2-2.5,10.1-4.8
		C89.4,285.4,83.2,283.9,78.9,284.1z"/>
	<path fill="#C52126" d="M155.2,296.5c-3.8-1.9-10.1-2.9-11.2-0.9c-1,2.1,3.6,6.5,7.4,8.4c3.8,1.9,7.7,1.8,8.8-0.3
		C161.2,301.6,159,298.4,155.2,296.5z"/>
	<path fill="#C52126" d="M138.2,312.7c-2,1.2-0.6,7.4,1.6,11.1c2.1,3.7,5.5,5.7,7.5,4.6c2-1.2,1.9-5.1-0.2-8.8
		C144.9,315.9,140.2,311.5,138.2,312.7z"/>
	<path fill="#C52126" d="M120.2,312.5c-2.3-0.1-4.6,5.8-4.8,10.1c-0.3,4.3,1.4,7.8,3.7,8c2.3,0.1,4.4-3.2,4.7-7.4
		C124,318.9,122.5,312.6,120.2,312.5z"/>
	<path fill="#C52126" d="M92.5,308.6c-2.6,3.3-3.3,7.2-1.5,8.7c1.8,1.4,5.4-0.1,8.1-3.5c2.6-3.3,4.9-9.3,3.1-10.7
		C100.4,301.6,95.1,305.3,92.5,308.6z"/>
	<path fill="#C52126" d="M260.4,249.4c1.9-3.8,1.8-7.7-0.3-8.8c-2.1-1-5.3,1.2-7.2,5c-1.9,3.8-2.9,10.1-0.9,11.2
		C254.1,257.9,258.5,253.2,260.4,249.4z"/>
	<path fill="#C52126" d="M274.3,257.1c-3.7,2.1-8,6.8-6.9,8.8c1.2,2,7.4,0.6,11.1-1.6c3.7-2.1,5.7-5.5,4.6-7.5
		C281.9,254.8,277.9,254.9,274.3,257.1z"/>
	<path fill="#C52126" d="M276.9,284.1c-4.3-0.3-10.5,1.2-10.6,3.5c-0.1,2.3,5.8,4.6,10.1,4.8c4.3,0.3,7.8-1.4,8-3.7
		C284.4,286.5,281.1,284.4,276.9,284.1z"/>
	<path fill="#C52126" d="M211.8,295.6c-1-2.1-7.3-1-11.2,0.9c-3.8,1.9-6.1,5.1-5,7.2c1,2.1,5,2.2,8.8,0.3
		C208.2,302.1,212.8,297.7,211.8,295.6z"/>
	<path fill="#C52126" d="M217.6,312.7c-2-1.2-6.7,3.2-8.8,6.9c-2.1,3.7-2.2,7.6-0.2,8.8c2,1.2,5.4-0.9,7.5-4.6
		C218.2,320.1,219.6,313.8,217.6,312.7z"/>
	<path fill="#C52126" d="M235.5,312.5c-2.3,0.1-3.8,6.4-3.5,10.6c0.3,4.3,2.4,7.6,4.7,7.4c2.3-0.1,4-3.7,3.7-8
		C240.1,318.3,237.9,312.3,235.5,312.5z"/>
	<path fill="#C52126" d="M253.6,303c-1.8,1.4,0.5,7.4,3.1,10.7c2.6,3.3,6.2,4.9,8.1,3.5c1.8-1.4,1.2-5.3-1.5-8.7
		C260.7,305.3,255.4,301.6,253.6,303z"/>
	<path fill="#C52126" d="M103.7,186.4c-2.1-1-6.5,3.6-8.4,7.4c-1.9,3.8-1.8,7.7,0.3,8.8c2.1,1,5.3-1.2,7.2-5
		C104.8,193.8,105.8,187.5,103.7,186.4z"/>
	<path fill="#C52126" d="M81.5,186.2c3.7-2.1,8-6.8,6.9-8.8c-1.2-2-7.4-0.6-11.1,1.6s-5.7,5.5-4.6,7.5
		C73.9,188.5,77.8,188.4,81.5,186.2z"/>
	<path fill="#C52126" d="M79.4,150.8c-4.3-0.3-7.8,1.4-8,3.7c-0.1,2.3,3.2,4.4,7.4,4.7c4.3,0.3,10.5-1.2,10.6-3.5
		C89.7,153.3,83.7,151,79.4,150.8z"/>
	<path fill="#C52126" d="M151.4,139.3c-3.8,1.9-8.4,6.3-7.4,8.4c1,2.1,7.3,1,11.2-0.9c3.8-1.9,6.1-5.1,5-7.2
		C159.2,137.5,155.2,137.4,151.4,139.3z"/>
	<path fill="#C52126" d="M138.2,130.6c2,1.2,6.7-3.2,8.8-6.9c2.1-3.7,2.2-7.6,0.2-8.8c-2-1.2-5.4,0.9-7.5,4.6
		C137.6,123.2,136.2,129.4,138.2,130.6z"/>
	<path fill="#C52126" d="M119.1,112.7c-2.3,0.1-4,3.7-3.7,8s2.5,10.2,4.8,10.1c2.3-0.1,3.8-6.4,3.5-10.6S121.4,112.6,119.1,112.7z"
		/>
	<path fill="#C52126" d="M102.2,140.2c1.8-1.4-0.5-7.4-3.1-10.7c-2.6-3.3-6.2-4.9-8.1-3.5c-1.8,1.4-1.2,5.3,1.5,8.7
		C95.1,138,100.4,141.7,102.2,140.2z"/>
	<path fill="#C52126" d="M260.1,202.6c2.1-1,2.2-5,0.3-8.8c-1.9-3.8-6.3-8.4-8.4-7.4c-2.1,1-1,7.3,0.9,11.2
		C254.8,201.4,258,203.7,260.1,202.6z"/>
	<path fill="#C52126" d="M278.4,179c-3.7-2.1-9.9-3.6-11.1-1.6c-1.2,2,3.2,6.7,6.9,8.8c3.7,2.1,7.6,2.2,8.8,0.2
		C284.2,184.4,282.1,181.1,278.4,179z"/>
	<path fill="#C52126" d="M276.9,159.1c4.3-0.3,7.6-2.4,7.4-4.7c-0.1-2.3-3.7-4-8-3.7s-10.2,2.5-10.1,4.8
		C266.4,157.9,272.6,159.4,276.9,159.1z"/>
	<path fill="#C52126" d="M200.6,146.8c3.8,1.9,10.1,2.9,11.2,0.9c1-2.1-3.6-6.5-7.4-8.4c-3.8-1.9-7.7-1.8-8.8,0.3
		C194.5,141.7,196.8,144.9,200.6,146.8z"/>
	<path fill="#C52126" d="M208.5,114.9c-2,1.2-1.9,5.1,0.2,8.8c2.1,3.7,6.8,8,8.8,6.9c2-1.2,0.6-7.4-1.6-11.1
		C213.9,115.8,210.6,113.8,208.5,114.9z"/>
	<path fill="#C52126" d="M236.7,112.7c-2.3-0.1-4.4,3.2-4.7,7.4c-0.3,4.3,1.2,10.5,3.5,10.6c2.3,0.1,4.6-5.8,4.8-10.1
		C240.6,116.4,239,112.9,236.7,112.7z"/>
	<path fill="#C52126" d="M256.7,129.5c-2.6,3.3-4.9,9.3-3.1,10.7c1.8,1.4,7.1-2.2,9.7-5.6c2.6-3.3,3.3-7.2,1.5-8.7
		C262.9,124.6,259.3,126.1,256.7,129.5z"/>
</g>
</svg>
